<svg width="30" height="31" viewBox="0 0 30 31" fill="none" xmlns="http://www.w3.org/2000/svg">
<path fill-rule="evenodd" clip-rule="evenodd" d="M17.2354 7.28578C18.0821 7.2105 19.9333 7.25301 20.8376 8.13961C20.8916 8.19364 20.8447 8.31587 20.7676 8.2955C19.4426 7.93856 17.3762 9.69581 16.037 8.55944C16.0007 8.89247 15.7004 10.4956 13.4135 10.2582C13.3595 10.2529 13.3382 10.1927 13.3781 10.159C13.7324 9.8579 14.1673 9.02444 13.7944 8.49213C12.6305 9.26447 12.0283 9.29813 9.88218 8.36813C9.81221 8.33801 9.85383 8.22375 9.93621 8.20515C10.3817 8.10507 11.4419 7.71978 12.3923 7.53998C12.5739 7.50544 12.7519 7.48507 12.9237 7.4833C11.9397 7.24858 11.511 7.04487 10.8627 7.04753C10.7918 7.04841 10.7564 6.95984 10.8077 6.91113C11.8219 5.93595 13.6606 5.88547 14.5463 6.61175L13.7527 4.95458L14.7173 4.80933C14.7173 4.80933 14.9688 5.69327 15.1938 6.48775C16.1982 5.3877 17.7517 5.4993 18.2752 6.4603C18.3062 6.51698 18.2548 6.5843 18.1911 6.57278C17.6641 6.48333 17.3036 6.92175 17.2274 7.28401L17.2354 7.28578Z" fill="#00912D"/>
<mask id="mask0_222_3882" style="mask-type:alpha" maskUnits="userSpaceOnUse" x="0" y="0" width="30" height="31">
<path d="M0.938477 0.356934H29.9686V30.9468H0.938477V0.356934Z" fill="white"/>
</mask>
<g mask="url(#mask0_222_3882)">
<path fill-rule="evenodd" clip-rule="evenodd" d="M5.94222 22.9329C4.72436 21.4502 3.93519 19.5982 3.79879 17.4229C3.56408 13.6533 4.85191 10.1077 9.86771 8.3248C9.87213 8.34074 9.86505 8.36023 9.88276 8.3682C9.81279 8.33809 9.85442 8.22383 9.93679 8.20523C10.3823 8.10514 11.4425 7.71897 12.3929 7.54006C12.5744 7.50552 12.7525 7.48514 12.9243 7.48249C11.9403 7.24866 11.5116 7.04494 10.8632 7.0476C10.7924 7.04849 10.757 6.95991 10.8083 6.91031C11.8225 5.93514 13.6612 5.88554 14.5469 6.61183L13.7533 4.95377L14.7179 4.8094C14.7179 4.8094 14.9694 5.69246 15.1944 6.48783C16.1988 5.38777 17.7523 5.49937 18.2758 6.46037C18.3068 6.51706 18.2554 6.58437 18.1916 6.57286C17.6646 6.4834 17.3042 6.92183 17.228 7.28409L17.236 7.28586C18.0827 7.21057 19.9338 7.25309 20.8382 8.13969C20.7753 8.07946 20.7 8.03074 20.6291 7.9776C24.2428 9.10777 26.7503 11.6843 27.0187 15.9747C27.1896 18.7142 26.2942 21.0755 24.7433 22.9072C25.2145 22.9745 25.683 23.0533 26.1525 23.1313C28.1285 20.7133 29.2702 17.6478 29.2702 14.3592C29.2702 6.86514 23.18 0.994629 15.4061 0.994629C7.63216 0.994629 1.54199 6.86514 1.54199 14.3592C1.54199 17.6531 2.68368 20.7204 4.66148 23.1375C5.08751 23.0666 5.51442 22.9967 5.94222 22.9329Z" fill="#FFD700"/>
<path fill-rule="evenodd" clip-rule="evenodd" d="M4.6615 23.1375C2.6837 20.7204 1.54201 17.6532 1.54201 14.3592C1.54201 6.86516 7.63218 0.994648 15.4061 0.994648C23.18 0.994648 29.2702 6.86516 29.2702 14.3592C29.2702 17.6478 28.1285 20.7133 26.1525 23.1313C26.3881 23.1703 26.6237 23.2013 26.8593 23.2438C28.7662 20.7877 29.907 17.7081 29.907 14.3592C29.907 6.34968 23.4147 0.356934 15.4061 0.356934C7.39658 0.356934 0.904297 6.34968 0.904297 14.3592C0.904297 17.7116 2.04775 20.793 3.95824 23.2491C4.19207 23.2075 4.42678 23.1765 4.6615 23.1375Z" fill="#FA6E0F"/>
<path fill-rule="evenodd" clip-rule="evenodd" d="M23.4707 29.0391C25.0552 29.1383 26.3776 29.9204 27.1756 30.9797C27.2013 31.0072 27.2394 31.0063 27.2509 30.9762C27.5237 29.8752 27.599 28.7008 27.4617 27.5175C27.4626 27.5051 27.4724 27.4962 27.4883 27.4927C28.2332 27.258 29.0569 27.1304 29.9338 27.1428C29.9807 27.1481 29.9798 27.1021 29.9302 27.0551C29.0011 26.1561 27.8665 25.4555 26.6212 25.01C26.1907 26.2261 25.7709 27.4413 25.3582 28.6609C25.3502 28.684 25.3174 28.6981 25.2838 28.6919L23.4707 29.0391Z" fill="#0AC855"/>
</g>
<path fill-rule="evenodd" clip-rule="evenodd" d="M25.2838 28.6917L23.4707 29.0389C23.4707 29.0389 23.4937 28.8733 23.5646 28.4163C24.4999 28.5491 25.2838 28.6917 25.2838 28.6917Z" fill="#0B4902"/>
<mask id="mask1_222_3882" style="mask-type:alpha" maskUnits="userSpaceOnUse" x="0" y="7" width="28" height="24">
<path d="M0.938477 7.97754H27.0391V30.9468H0.938477V7.97754Z" fill="white"/>
</mask>
<g mask="url(#mask1_222_3882)">
<path fill-rule="evenodd" clip-rule="evenodd" d="M5.95272 22.9311C12.1687 22.0223 18.5254 22.0126 24.7432 22.9071C26.294 21.0755 27.1895 18.7142 27.0186 15.9747C26.7502 11.6843 24.2427 9.10771 20.629 7.97754C20.6999 8.03068 20.7752 8.0794 20.838 8.13962C20.8921 8.19365 20.8451 8.31588 20.7681 8.29551C19.443 7.93857 17.3767 9.69582 16.0375 8.55945C16.0012 8.8916 15.7009 10.4956 13.414 10.2583C13.36 10.2529 13.3387 10.1927 13.3786 10.1591C13.7328 9.85791 14.1677 9.02357 13.7948 8.49214C12.631 9.26448 12.0287 9.29814 9.88264 8.36814C9.86492 8.36017 9.87201 8.34068 9.86758 8.32474C4.85178 10.1077 3.56395 13.6532 3.79866 17.4228C3.93506 19.5999 4.73398 21.4466 5.95272 22.9311Z" fill="#FA3200"/>
<path fill-rule="evenodd" clip-rule="evenodd" d="M5.56931 28.6918C5.53565 28.698 5.50288 28.6838 5.49491 28.6608C5.08128 27.4412 4.65791 26.2215 4.22656 25.0063C2.98214 25.4519 1.85196 26.1569 0.923736 27.055C0.874136 27.1019 0.873251 27.148 0.920193 27.1427C1.79705 27.1303 2.62076 27.2578 3.36565 27.4925C3.38159 27.4961 3.39134 27.5049 3.39222 27.5173C3.25494 28.7007 3.33022 29.8751 3.60302 30.9761C3.61454 31.0062 3.65262 31.0071 3.67831 30.9796C4.47634 29.9203 5.79694 29.1382 7.38236 29.039L5.56931 28.6918Z" fill="#0AC855"/>
</g>
<path fill-rule="evenodd" clip-rule="evenodd" d="M25.2839 28.6917C18.7845 27.5527 12.0673 27.5527 5.56878 28.6917C5.53513 28.6979 5.50236 28.6838 5.49438 28.6607C4.89298 26.8867 4.27298 25.117 3.6335 23.3518C3.62464 23.327 3.6521 23.2986 3.69373 23.2915C11.4207 21.8797 19.4311 21.8797 27.159 23.2915C27.2006 23.2986 27.228 23.327 27.2183 23.3518C26.5797 25.117 25.9597 26.8867 25.3583 28.6607C25.3503 28.6838 25.3176 28.6979 25.2839 28.6917Z" fill="#00912D"/>
<path fill-rule="evenodd" clip-rule="evenodd" d="M5.56934 28.6917L7.38239 29.0389C7.38239 29.0389 7.35848 28.8733 7.28762 28.4163C6.35231 28.5491 5.56934 28.6917 5.56934 28.6917Z" fill="#0B4902"/>
</svg>
