<svg width="37" height="37" viewBox="0 0 37 37" fill="none" xmlns="http://www.w3.org/2000/svg">
<mask id="mask0_45_3494" style="mask-type:alpha" maskUnits="userSpaceOnUse" x="0" y="29" width="37" height="8">
<path d="M0.971191 29.7715H36.0237V36.9928H0.971191V29.7715Z" fill="white"/>
</mask>
<g mask="url(#mask0_45_3494)">
<path fill-rule="evenodd" clip-rule="evenodd" d="M35.9778 32.2442C34.8549 31.1577 33.5015 30.3088 31.995 29.7715C31.4746 31.2388 30.9648 32.7085 30.4657 34.1802C30.4561 34.2082 30.4167 34.2247 30.3758 34.2176C30.3693 34.2164 29.1325 34.0001 28.226 33.8764C28.1932 34.2376 28.1518 34.6504 28.1518 34.6504C30.062 34.7713 31.6954 35.6985 32.6575 36.9759C32.6874 37.0095 32.7342 37.0077 32.7483 36.9718C33.0772 35.6446 33.1676 34.2285 33.0016 32.802C33.0028 32.7868 33.0143 32.7758 33.0336 32.7717C33.9316 32.4895 34.9248 32.3351 35.9815 32.3509C36.0389 32.3569 36.0374 32.3016 35.9778 32.2442ZM8.83556 34.6504C6.92542 34.7713 5.292 35.6985 4.32988 36.9759C4.29999 37.0095 4.25311 37.0077 4.23901 36.9718C3.9101 35.6446 3.81983 34.2285 3.98579 32.802C3.98459 32.7868 3.97314 32.7758 3.95385 32.7717C3.05573 32.4895 2.06263 32.3351 1.00591 32.3509C0.948537 32.3569 0.949984 32.3016 1.00964 32.2442C2.13218 31.1581 3.48539 30.3091 4.9913 29.7718C5.51171 31.239 6.02091 32.7086 6.51999 34.1802C6.52951 34.2082 6.56904 34.2247 6.6099 34.2176C6.61665 34.2164 7.84006 34.002 8.76144 33.8762C8.79844 34.2633 8.83556 34.6504 8.83556 34.6504Z" fill="#3DAD55"/>
</g>
<path fill-rule="evenodd" clip-rule="evenodd" d="M9.30329 7.18999C9.36379 7.55553 9.32522 7.78621 9.0784 8.03798C8.91593 8.20381 8.72419 8.28469 8.497 8.28059C8.2697 8.27673 8.06349 8.18092 7.88186 8.00279C7.70337 7.82791 7.60659 7.62688 7.59804 7.39994C7.58948 7.17264 7.6601 6.97944 7.81931 6.81674C8.04433 6.58727 8.23017 6.55689 8.54593 6.5728L8.52906 5.83762C8.04252 5.8046 7.61828 5.96983 7.26528 6.33007C6.94349 6.65837 6.78958 7.03874 6.79404 7.4743C6.80151 7.90661 6.96626 8.28035 7.29456 8.60214C7.62298 8.92381 8.00335 9.09049 8.43264 9.09244C8.86182 9.09447 9.2358 8.92959 9.55747 8.60129C9.95422 8.19646 10.1137 7.73402 10.0359 7.22036L9.30329 7.18999Z" fill="#0A0B09"/>
<path fill-rule="evenodd" clip-rule="evenodd" d="M11.0956 6.36587L10.8099 5.91307L12.0064 5.15789L11.6396 4.57661L10.443 5.33156L10.1881 4.92781L11.4489 4.13213L11.0678 3.52832L9.07471 4.78596L10.7445 7.432L12.7376 6.17424L12.3564 5.57031L11.0956 6.36587Z" fill="#0A0B09"/>
<path fill-rule="evenodd" clip-rule="evenodd" d="M13.7641 3.98144L13.4008 4.10606L13.1622 3.40921L13.5254 3.28471C13.88 3.16311 14.0668 3.2124 14.1479 3.44886C14.2304 3.68954 14.1019 3.86574 13.7641 3.98144ZM14.9193 3.19396C14.6935 2.53507 14.1131 2.32838 13.3403 2.59316L12.1621 2.99679L13.1764 5.95727L13.9451 5.69369L13.631 4.77749L13.9351 4.67312L14.7938 5.40287L15.6764 5.10036L14.6855 4.26045C14.9851 3.96433 15.0626 3.61205 14.9193 3.19396Z" fill="#0A0B09"/>
<path fill-rule="evenodd" clip-rule="evenodd" d="M17.8044 1.70508L15.3096 2.00602L15.3951 2.71493L16.237 2.61333L16.5261 5.01061L17.3371 4.91287L17.048 2.51546L17.8898 2.41398L17.8044 1.70508Z" fill="#0A0B09"/>
<path fill-rule="evenodd" clip-rule="evenodd" d="M18.813 4.87158L19.6242 4.91581L19.795 1.79142L18.9838 1.74707L18.813 4.87158Z" fill="#0A0B09"/>
<path fill-rule="evenodd" clip-rule="evenodd" d="M23.1531 3.15141L23.3209 2.45721L21.1772 1.93945L20.4424 4.98129L21.2322 5.17195L21.5026 4.05243L22.7568 4.35554L22.9181 3.68713L21.6641 3.38426L21.7993 2.82444L23.1531 3.15141Z" fill="#0A0B09"/>
<path fill-rule="evenodd" clip-rule="evenodd" d="M24.4293 2.89966L23.1758 5.76674L23.9201 6.09215L25.1738 3.22507L24.4293 2.89966Z" fill="#0A0B09"/>
<path fill-rule="evenodd" clip-rule="evenodd" d="M25.7511 6.30499L26.0527 5.8622L27.2223 6.6586L27.6092 6.0901L26.4396 5.29394L26.7083 4.89887L27.9408 5.73794L28.3428 5.14762L26.3945 3.82129L24.6333 6.40791L26.5816 7.73449L26.9837 7.14394L25.7511 6.30499Z" fill="#0A0B09"/>
<path fill-rule="evenodd" clip-rule="evenodd" d="M29.4682 8.45276C29.038 8.84217 28.604 8.79553 28.1668 8.31224L28.02 8.15002L29.2809 7.00856L29.4247 7.16753C29.8649 7.65407 29.8786 8.08132 29.4682 8.45276ZM30.5602 7.84341C30.5044 7.44244 30.3226 7.09521 30.0229 6.76438L29.2651 5.927L26.9453 8.02708L27.7031 8.86434C28.2694 9.48973 29.1361 9.85527 30.0164 9.05826C30.4367 8.6779 30.6163 8.24438 30.5602 7.84341Z" fill="#0A0B09"/>
<path fill-rule="evenodd" clip-rule="evenodd" d="M32.7689 30.234C32.7504 30.2217 32.7319 30.2095 32.7133 30.1974C32.749 30.2205 32.769 30.2338 32.769 30.2338L32.7689 30.234ZM32.1342 29.8472C32.0879 29.8216 32.0416 29.7964 31.9951 29.7715C32.042 29.7964 32.0885 29.8218 32.1342 29.8472Z" fill="#79C08D"/>
<path fill-rule="evenodd" clip-rule="evenodd" d="M30.4658 34.1802C30.9474 32.7619 31.4935 31.1857 31.9951 29.7715C32.0416 29.7881 32.0879 29.805 32.1342 29.8221C32.3872 29.9166 32.6127 30.0124 32.7133 30.0562C32.7319 30.0642 32.7504 30.0724 32.7689 30.0806L30.4658 34.1802Z" fill="#0EA248"/>
<path fill-rule="evenodd" clip-rule="evenodd" d="M4.21924 30.0792C4.21924 30.0792 4.22372 30.0772 4.23229 30.0735C4.228 30.0753 4.22352 30.0773 4.21924 30.0792Z" fill="#79C08D"/>
<path fill-rule="evenodd" clip-rule="evenodd" d="M6.51806 34.1737L4.21924 30.0806C4.22454 30.0782 4.23009 30.0758 4.23539 30.0735C4.30963 30.041 4.63046 29.9026 4.99045 29.7725C5.49062 31.1828 6.03633 32.7555 6.51697 34.1703C6.51733 34.1714 6.5177 34.1726 6.51806 34.1737Z" fill="#0EA248"/>
<path fill-rule="evenodd" clip-rule="evenodd" d="M28.1519 34.6505L28.226 33.8765C28.1933 34.2365 28.1522 34.6477 28.1519 34.6505ZM30.3855 34.2189C30.3822 34.2186 30.3791 34.2181 30.3758 34.2177C30.372 34.2169 29.9311 34.1398 29.3836 34.0515C29.7206 34.1052 30.0566 34.1614 30.3855 34.2189Z" fill="#309E53"/>
<path fill-rule="evenodd" clip-rule="evenodd" d="M28.1519 34.6505C28.1522 34.6477 28.1933 34.2365 28.226 33.8765C28.6066 33.9307 28.9957 33.9895 29.3836 34.0515C29.9311 34.1398 30.372 34.2169 30.3758 34.2177C30.3791 34.2181 30.3822 34.2186 30.3855 34.2189C30.3862 34.219 30.387 34.2191 30.3879 34.2193L28.1519 34.6505Z" fill="#129346"/>
<path fill-rule="evenodd" clip-rule="evenodd" d="M6.60059 34.2189C6.9084 34.1651 7.22259 34.1124 7.53788 34.0618C7.01903 34.146 6.61372 34.217 6.60987 34.2177C6.60673 34.2182 6.60372 34.2186 6.60059 34.2189Z" fill="#309E53"/>
<path fill-rule="evenodd" clip-rule="evenodd" d="M8.83562 34.6505L6.59814 34.2193C6.59899 34.2191 6.59983 34.219 6.60068 34.2189C6.60381 34.2185 6.60682 34.2181 6.60996 34.2177C6.61381 34.2169 7.01912 34.1459 7.53797 34.0617C7.94774 33.9959 8.35944 33.9335 8.7615 33.8762C8.77078 33.973 8.78006 34.0698 8.78874 34.1605C8.79741 34.2513 8.80549 34.336 8.81248 34.4086C8.81935 34.4811 8.82513 34.5416 8.82923 34.5839C8.83333 34.6263 8.83562 34.6505 8.83562 34.6505Z" fill="#129346"/>
<path fill-rule="evenodd" clip-rule="evenodd" d="M30.2481 27.3107C30.0775 27.285 29.907 27.2605 29.7363 27.2359C31.3776 25.2921 32.4049 22.8528 32.4857 20.0454C32.5662 22.8474 31.7171 25.3087 30.2481 27.3107Z" fill="#ADADAA"/>
<path fill-rule="evenodd" clip-rule="evenodd" d="M6.55052 27.339C5.37267 25.6708 4.62026 23.6629 4.47635 21.3567C4.44791 20.8998 4.43827 20.4456 4.44924 19.9958C4.4543 20.2076 4.4631 20.42 4.47635 20.6329C4.63942 23.2474 5.58406 25.4787 7.04466 27.2659C6.87991 27.29 6.71504 27.3138 6.55052 27.339Z" fill="#ADADAA"/>
<path fill-rule="evenodd" clip-rule="evenodd" d="M20.959 31.6521C21.0653 31.6822 21.1832 31.6999 21.312 31.705C21.195 31.6866 21.0772 31.669 20.959 31.6521Z" fill="#E3662A"/>
<path fill-rule="evenodd" clip-rule="evenodd" d="M5.51938 27.5051C5.24555 27.1695 4.98294 26.8231 4.73382 26.4647C2.78535 23.6608 1.75538 20.3669 1.75538 16.9391C1.75538 12.5192 3.48908 8.43387 6.63709 5.43579C9.75642 2.46506 13.958 0.828987 18.4682 0.828987C22.9783 0.828987 27.18 2.46506 30.2994 5.43579C33.4473 8.43387 35.181 12.5192 35.181 16.9391C35.181 20.3537 34.1583 23.637 32.2236 26.4343C31.9703 26.8007 31.7024 27.1543 31.4232 27.4971C31.7108 27.5448 31.998 27.5943 32.285 27.6453C34.5806 24.687 35.9496 20.9736 35.9496 16.9391C35.9496 7.28446 28.1229 0.0603027 18.4682 0.0603027C8.81346 0.0603027 0.986816 7.28446 0.986816 16.9391C0.986816 20.9776 2.35847 24.6943 4.65813 27.6541C4.94497 27.6029 5.23193 27.5531 5.51938 27.5051Z" fill="#E3662A"/>
<path fill-rule="evenodd" clip-rule="evenodd" d="M30.6722 29.1264H30.6235V29.0349H30.6722C30.7208 29.0349 30.7459 29.0496 30.7459 29.0791C30.7459 29.1101 30.7208 29.1264 30.6722 29.1264Z" fill="#E3662A"/>
<path fill-rule="evenodd" clip-rule="evenodd" d="M30.6722 29.0349H30.6235V29.1264H30.6722C30.7208 29.1264 30.7459 29.1101 30.7459 29.0791C30.7459 29.0496 30.7208 29.0349 30.6722 29.0349Z" fill="#128843"/>
<path fill-rule="evenodd" clip-rule="evenodd" d="M10.8025 29.8508C10.5474 29.8508 10.3203 30.0461 10.3203 30.315C10.3203 30.5808 10.5474 30.7739 10.8025 30.7739C11.0657 30.7739 11.2847 30.5894 11.2847 30.315C11.2847 30.0417 11.0618 29.8508 10.8025 29.8508Z" fill="#128843"/>
<path fill-rule="evenodd" clip-rule="evenodd" d="M26.4887 29.7214C26.2634 29.7214 26.1052 29.8614 26.0625 30.0623H26.8964C26.8782 29.8674 26.7381 29.7214 26.4887 29.7214Z" fill="#128843"/>
<path fill-rule="evenodd" clip-rule="evenodd" d="M30.7444 29.3178L30.6736 29.2162H30.6235V29.3178H30.5233V28.948H30.6898C30.7782 28.948 30.8475 28.9907 30.8475 29.0791C30.8475 29.1366 30.8225 29.1765 30.7709 29.2L30.8579 29.3178H30.7444ZM30.6722 28.8403C30.5911 28.8403 30.5218 28.8699 30.4658 28.9288C30.4098 28.9863 30.3818 29.0586 30.3818 29.1425C30.3818 29.2265 30.4098 29.2972 30.4658 29.3547C30.5218 29.4122 30.5911 29.4403 30.6722 29.4403C30.7547 29.4403 30.8239 29.4122 30.8799 29.3547C30.9374 29.2972 30.9654 29.2265 30.9654 29.1425C30.9654 29.0586 30.9374 28.9863 30.8799 28.9288C30.8239 28.8699 30.7547 28.8403 30.6722 28.8403Z" fill="#128843"/>
<path fill-rule="evenodd" clip-rule="evenodd" d="M14.727 27.6042C14.8717 27.6012 14.947 28.0232 15.3158 28.0038C15.4815 27.9952 15.5696 27.7894 15.4854 27.6466L15.4835 27.6434C15.4101 27.5227 15.2957 27.4769 15.1657 27.4541C15.076 27.4385 14.9844 27.4299 14.9014 27.3881C14.8574 27.3658 14.8301 27.3317 14.8301 27.2795C14.8301 27.2258 14.8513 27.1859 14.9 27.1613C14.9716 27.1252 15.0486 27.1272 15.1258 27.1266C15.1795 27.1262 15.2292 27.1128 15.2705 27.0747C15.3626 26.9899 15.3819 26.8345 15.3219 26.7216C15.2459 26.579 15.0823 26.5628 14.9645 26.637C14.8824 26.6887 14.8533 26.7708 14.8311 26.8593C14.8159 26.9196 14.7787 27.015 14.6546 27.0103C14.5603 27.0067 14.5107 26.9131 14.528 26.8203C14.5428 26.7404 14.5714 26.6697 14.582 26.589C14.5937 26.5007 14.5802 26.4178 14.5107 26.3558C14.4588 26.3096 14.3952 26.2881 14.3241 26.2961C14.3241 26.2961 14.1451 26.3017 14.0841 26.4602C14.0096 26.6536 14.1327 26.7146 14.2199 26.7855C14.2689 26.8254 14.3191 26.866 14.338 26.9312C14.3523 26.9803 14.3397 27.034 14.3019 27.0585C14.2507 27.0916 14.1722 27.0856 14.115 27.0374C14.0484 26.9813 14.0277 26.8468 13.8979 26.7962C13.7895 26.7539 13.6477 26.7932 13.5994 26.8896C13.5351 27.0182 13.6172 27.1381 13.7562 27.1942C13.8347 27.2258 14.0957 27.237 14.0818 27.3689C14.0698 27.4836 13.8346 27.3932 13.729 27.4323C13.5601 27.495 13.5532 27.6595 13.5912 27.745C13.6452 27.8665 13.7971 27.9051 13.9066 27.8552C14.0276 27.8002 14.1303 27.553 14.2567 27.6162C14.3772 27.6765 14.2597 27.8182 14.2537 27.9568C14.2482 28.0804 14.335 28.2011 14.543 28.1799C14.6683 28.1673 14.7752 28.0172 14.7029 27.8845C14.6824 27.8469 14.6497 27.7863 14.638 27.7451C14.6167 27.67 14.6653 27.6054 14.727 27.6042Z" fill="#128843"/>
<path fill-rule="evenodd" clip-rule="evenodd" d="M18.3352 29.9121C18.2001 29.9121 18.0862 29.9598 18.0059 30.0501C17.935 30.1299 17.896 30.2367 17.896 30.3512C17.896 30.6395 18.117 30.7903 18.3352 30.7903C18.4703 30.7903 18.5842 30.7426 18.6644 30.6522C18.7353 30.5726 18.7744 30.4657 18.7744 30.3512C18.7744 30.0629 18.5534 29.9121 18.3352 29.9121Z" fill="#128843"/>
<path fill-rule="evenodd" clip-rule="evenodd" d="M30.9581 29.4299C30.88 29.508 30.7842 29.5477 30.6722 29.5477C30.5602 29.5477 30.4659 29.508 30.3877 29.4299C30.3112 29.3502 30.2728 29.2544 30.2728 29.1424C30.2728 29.0289 30.3112 28.9331 30.3877 28.8535C30.4659 28.774 30.5602 28.7342 30.6722 28.7342C30.7842 28.7342 30.88 28.774 30.9581 28.8535C31.0362 28.9331 31.0761 29.0289 31.0761 29.1424C31.0761 29.2544 31.0362 29.3502 30.9581 29.4299ZM29.9278 31.4916C29.712 31.6695 29.4285 31.7602 29.0855 31.7602C28.6407 31.7602 28.2801 31.6669 27.9574 31.4554L27.8964 31.4123L28.3173 30.7179C28.8005 31.0277 29.0503 30.9813 29.1455 30.974C29.3546 30.9578 29.3772 30.7266 29.2043 30.7307C29.0714 30.7337 28.8089 30.761 28.4196 30.5798C28.1473 30.4131 27.9698 30.219 27.9698 29.8988C27.9698 29.6223 28.0847 29.396 28.3112 29.2261C28.529 29.0628 28.7373 28.9724 29.0479 28.958C29.4505 28.9395 29.7422 29.0271 30.1037 29.2132L30.1799 29.2638L29.7959 29.8964C29.3753 29.7279 29.1573 29.682 29.0047 29.7112C28.826 29.7452 28.8518 29.9186 28.9836 29.9362C29.1155 29.9537 29.326 29.897 29.7227 30.0378C30.067 30.1753 30.2715 30.3991 30.2715 30.7807C30.2715 31.069 30.1558 31.3081 29.9278 31.4916ZM27.8206 30.5717H26.0629C26.1118 30.7837 26.3466 30.9034 26.5642 30.9034C26.8198 30.9034 27.0079 30.8712 27.143 30.6932L27.7849 31.2971C27.4321 31.6727 26.9908 31.7464 26.5751 31.7464C26.1617 31.7464 25.8191 31.6213 25.5471 31.3765C25.2752 31.1319 25.1392 30.7947 25.1392 30.3704C25.1392 29.9516 25.2643 29.6144 25.52 29.3533C25.7756 29.0868 26.1074 28.9562 26.5098 28.9562C26.9286 28.9562 27.255 29.0868 27.4834 29.3533C27.7118 29.6198 27.826 29.9406 27.826 30.3215L27.8206 30.5717ZM23.8347 31.6854C23.0846 31.8665 22.2502 31.5396 22.0582 30.7443C21.9228 30.183 22.1264 29.728 22.5121 29.4306C22.549 29.4005 22.5952 29.3713 22.6261 29.3606C22.4333 29.3771 22.3167 29.3676 22.1992 29.4071C22.1863 29.4114 22.1747 29.3976 22.181 29.3855C22.3067 29.1474 22.5953 29.0312 22.7997 29.11C22.6608 28.9888 22.5518 28.892 22.5518 28.892L22.7421 28.7346C22.7421 28.7346 22.8639 28.9144 22.9525 29.0453C23.0689 28.785 23.3578 28.7119 23.5106 28.8551C23.5197 28.8635 23.5145 28.8789 23.5022 28.8808C23.4011 28.8961 23.3638 29.0009 23.3719 29.0713L23.4597 29.0604C24.1778 28.9684 24.7957 29.3261 24.9685 30.0419C25.1604 30.8372 24.5848 31.5043 23.8347 31.6854ZM21.8492 31.6941L21.7881 31.6968C21.6812 31.7013 21.5384 31.7075 21.3901 31.7075C20.6862 31.7075 20.2825 31.3542 20.2825 30.6705V29.9382H20.0084V29.0253H20.2825V28.3031H21.3326V29.0253H21.7468V29.9382H21.3326V30.6019C21.3326 30.7308 21.3876 30.7859 21.5165 30.7859H21.8492V31.6941ZM19.8065 31.674H18.7897V31.3765L18.7236 31.4473C18.5408 31.643 18.311 31.7464 18.0586 31.7464C17.8781 31.7464 17.6889 31.6922 17.5113 31.5895C17.1152 31.3605 16.879 30.8965 16.8792 30.3485C16.8794 29.8029 17.1158 29.3409 17.5113 29.1128C17.6889 29.0103 17.877 28.9562 18.0556 28.9562C18.3087 28.9562 18.5396 29.0623 18.7234 29.263L18.7897 29.3354V29.0311H19.8065V31.674ZM16.7026 31.6774H15.6364V30.238C15.6364 30.0119 15.5397 29.8973 15.3489 29.8973C15.1591 29.8973 15.121 30.0163 15.1086 30.0555C15.0758 30.1729 15.0703 30.2399 15.0703 30.3822V31.6774H14.0195V30.238C14.0195 30.0119 13.9211 29.8973 13.727 29.8973C13.6167 29.8973 13.5446 29.9509 13.5164 29.9968C13.4965 30.0267 13.4816 30.0808 13.4722 30.1188C13.4534 30.2276 13.4534 30.2665 13.4534 30.3822V31.6774H12.432V29.0253H13.4431L13.4424 29.2745C13.5141 29.1283 13.7877 28.9562 14.1714 28.9562C14.4873 28.9562 14.7391 29.0648 14.8993 29.2702L14.9276 29.3066L14.9582 29.272C15.1492 29.0558 15.3682 28.9635 15.6906 28.9635C15.9949 28.9635 16.7026 29.0787 16.7026 30.145V31.6774ZM10.8219 31.7464C10.0515 31.7464 9.35 31.2667 9.35 30.3514C9.35 29.6219 9.78158 29.1691 10.3625 29.0153C10.6853 28.9448 10.8787 28.9336 11.2296 29.0025C11.8341 29.1426 12.2554 29.6003 12.2554 30.3514C12.2554 31.2667 11.5924 31.7464 10.8219 31.7464ZM8.7968 31.6774H7.77334V29.2025H6.87184V28.1959H9.69842V29.2025H8.7968V31.6774ZM32.6366 27.7074C30.2852 27.2778 27.9119 26.9587 25.5282 26.7461C25.5419 26.8389 25.5497 26.9376 25.5497 27.0433V28.5724H24.4922V27.1309C24.4922 26.9088 24.3962 26.7961 24.2071 26.7961C24.0089 26.7961 23.8861 26.8796 23.8861 27.2957V28.5724H22.8273V26.5505C22.7674 26.5472 22.7076 26.5436 22.6477 26.5405C22.6489 26.5667 22.6507 26.5923 22.6507 26.619L22.6453 26.8692H20.8876C20.9365 27.0813 21.1713 27.201 21.3889 27.201C21.6445 27.201 21.8326 27.1688 21.9677 26.9906L22.6096 27.5947C22.2568 27.9702 21.8155 28.044 21.3998 28.044C20.9864 28.044 20.6438 27.9189 20.3718 27.6741C20.0999 27.4293 19.9639 27.0922 19.9639 26.668C19.9639 26.5912 19.9696 26.5183 19.978 26.4471C19.9086 26.4458 19.8393 26.4444 19.7699 26.4432V26.8355H19.356V27.4986C19.356 27.6275 19.411 27.6824 19.5398 27.6824H19.8722V28.5898L19.8111 28.5925C19.7045 28.597 19.5618 28.6031 19.4134 28.6031C18.7102 28.6031 18.3069 28.2503 18.3069 27.5671V26.8355H18.0329V26.4338C17.9652 26.4342 17.8975 26.4353 17.8297 26.4359V26.8336H17.416V27.4967C17.416 27.6254 17.471 27.6804 17.5998 27.6804H17.9321V28.5879L17.8711 28.5904C17.7643 28.595 17.6216 28.6012 17.4734 28.6012C16.7701 28.6012 16.3667 28.2483 16.3667 27.5652V26.8336H16.0929V26.4679C15.996 26.4708 15.8991 26.4749 15.8022 26.4782C15.9254 26.6848 15.9959 26.9406 15.9959 27.2458C15.9959 28.1608 15.36 28.6402 14.5419 28.6402C13.724 28.6402 13.0496 28.1608 13.0496 27.2458C13.0496 27.0038 13.098 26.7929 13.1827 26.6126C13.1187 26.6168 13.0547 26.621 12.9907 26.6255C12.9254 26.9254 12.7583 27.1589 12.4907 27.3208L12.4576 27.3408L13.1915 28.5724H12.0044L11.3434 27.4427H11.1679V28.5724H10.1137V26.877C8.18203 27.0826 6.25863 27.3587 4.34969 27.7074C4.29944 27.7165 4.26653 27.7497 4.2775 27.7798C5.04763 29.9086 5.79522 32.0421 6.52028 34.1802C6.5298 34.2083 6.56933 34.2248 6.61019 34.2177C14.4442 32.8447 22.5421 32.8447 30.3761 34.2177C30.417 34.2248 30.4564 34.2083 30.466 34.1802C31.1911 32.0421 31.9387 29.9086 32.7088 27.7798C32.7198 27.7497 32.6867 27.7165 32.6366 27.7074Z" fill="#128843"/>
<path fill-rule="evenodd" clip-rule="evenodd" d="M20.6736 8.41353C21.6944 8.32217 23.9266 8.37387 25.016 9.44278C25.0814 9.50689 25.0252 9.65525 24.9314 9.62995C23.3353 9.19956 20.8444 11.3183 19.2298 9.94824C19.1849 10.349 18.8236 12.2829 16.0671 11.9963C16.0019 11.9895 15.9759 11.9182 16.0237 11.8774C16.451 11.5128 16.9752 10.5085 16.5255 9.86689C15.1223 10.7982 14.3975 10.8383 11.81 9.71756C11.7253 9.68093 11.776 9.54365 11.8751 9.52148C12.4125 9.40108 13.69 8.93623 14.8361 8.71977C15.0541 8.67855 15.2692 8.65324 15.476 8.65059C14.2903 8.36809 13.7732 8.12198 12.9922 8.12584C12.9066 8.12632 12.8638 8.02051 12.9256 7.96121C14.1485 6.78504 16.3649 6.72551 17.4323 7.60073L16.476 5.60273L17.6384 5.42773C17.6384 5.42773 17.9416 6.49314 18.2131 7.45116C19.4233 6.12483 21.2962 6.25909 21.9269 7.4173C21.9644 7.48612 21.9029 7.56735 21.8257 7.55409C21.1908 7.44574 20.7553 7.97423 20.6646 8.41124L20.6736 8.41353Z" fill="#128843"/>
<path fill-rule="evenodd" clip-rule="evenodd" d="M21.3134 26.0188C21.0881 26.0188 20.9299 26.1587 20.8872 26.3596H21.7211C21.7029 26.1649 21.5628 26.0188 21.3134 26.0188Z" fill="#DB382A"/>
<path fill-rule="evenodd" clip-rule="evenodd" d="M11.95 26.2567C11.95 26.0418 11.7608 25.9028 11.4679 25.9028H11.1655V26.6362H11.4679C11.7743 26.6362 11.95 26.4978 11.95 26.2567Z" fill="#DB382A"/>
<path fill-rule="evenodd" clip-rule="evenodd" d="M6.1114 15.5019H10.363V17.0206H7.81003V17.8667H10.1748V19.3363H7.81003V21.4474H6.1114V15.5019ZM10.6587 15.5019H13.0463C14.6261 15.5019 15.5322 16.2619 15.5322 17.5868C15.5322 18.3924 15.197 18.9814 14.5355 19.3393L15.7918 21.4474H13.8378L12.7822 19.6717H12.3574V21.4474H10.6587V15.5019ZM15.9316 15.5019H20.4614V17.0206H17.7284V17.6867H20.3222V19.1562H17.7284V19.9287H20.4614V21.4474H15.9316V15.5019ZM21.6621 19.13L21.7352 19.2249C22.1496 19.7645 22.647 20.0269 23.2559 20.0269C23.6354 20.0269 23.8713 19.8977 23.8713 19.6898C23.8713 19.6264 23.8713 19.4338 23.3856 19.3511L22.5012 19.1873C21.9997 19.1023 21.5766 18.8946 21.2436 18.5702C20.9125 18.2303 20.7456 17.8148 20.7456 17.3331C20.7456 16.7622 20.9767 16.2939 21.4325 15.9411C21.8865 15.59 22.4339 15.412 23.0596 15.412C23.9816 15.412 24.7517 15.7656 25.3484 16.4632L25.4093 16.5344L24.3231 17.696L24.2472 17.6047C23.866 17.1456 23.4561 16.9224 22.9941 16.9224C22.5887 16.9224 22.4442 17.0797 22.4442 17.2268C22.4442 17.2807 22.4442 17.4446 22.8644 17.5163L23.6506 17.6555C24.924 17.8778 25.5699 18.5429 25.5699 19.6324C25.5699 20.1988 25.3299 20.6647 24.8568 21.0175C24.3875 21.3672 23.8237 21.5373 23.1332 21.5373C22.0919 21.5373 21.1541 21.0736 20.6246 20.297L20.576 20.2255L21.6621 19.13ZM25.7795 15.5019H27.4781V17.6458H29.1179V15.5019H30.8247V21.4474H29.1179V19.2543H27.4781V21.4474H25.7795V15.5019ZM10.1137 26.8784V25.0908H11.5623C12.4902 25.0908 13.0223 25.5387 13.0223 26.3195C13.0223 26.4277 13.0114 26.5289 12.9909 26.6237C13.055 26.6193 13.1191 26.6155 13.1833 26.6112C13.354 26.2492 13.6741 26.0129 14.0615 25.9103C14.3841 25.8397 14.6198 25.8287 14.9706 25.8975C15.3287 25.9805 15.6216 26.176 15.8015 26.4772C15.8986 26.4738 15.9957 26.4715 16.0928 26.4686V25.9213H16.3667V25.1999H17.4159V25.9213H17.8297V26.4348C17.8974 26.4342 17.9651 26.4344 18.0329 26.4339V25.9233H18.3068V25.2018H19.356V25.9233H19.7698V26.4428C19.8392 26.4439 19.9085 26.4456 19.978 26.4469C20.0154 26.129 20.1357 25.8641 20.3446 25.6508C20.6002 25.3843 20.932 25.2538 21.3344 25.2538C21.7532 25.2538 22.0796 25.3843 22.308 25.6508C22.5208 25.899 22.6332 26.1952 22.6478 26.5423C22.7075 26.5454 22.7674 26.5488 22.8272 26.552V25.9262H23.8755V26.2328C23.946 26.0726 24.2557 25.8513 24.562 25.8513C25.1023 25.8513 25.4436 26.174 25.5282 26.7469C26.9357 26.8726 28.3394 27.0348 29.737 27.236C31.6004 25.0292 32.6725 22.1843 32.4667 18.8871C32.1451 13.7317 29.1407 10.6283 24.8065 9.26001C24.8802 9.31738 24.9504 9.37812 25.0162 9.44272C25.0817 9.50672 25.0254 9.65508 24.9316 9.62989C23.3356 9.19951 20.8446 11.3183 19.23 9.94819C19.1852 10.3489 18.8239 12.2828 16.0673 11.9962C16.0021 11.9895 15.9762 11.9181 16.0239 11.8774C16.4513 11.5128 16.9754 10.5085 16.5258 9.86683C15.1225 10.7981 14.3977 10.8382 11.8102 9.71751C11.7835 9.70582 11.7716 9.68388 11.769 9.65906C5.72694 11.8089 4.19295 16.0901 4.47629 20.633C4.63936 23.2475 5.584 25.4788 7.0446 27.266C8.06469 27.1165 9.08804 26.988 10.1137 26.8784Z" fill="#DB382A"/>
<path fill-rule="evenodd" clip-rule="evenodd" d="M13.8336 17.5706C13.8336 17.1143 13.4828 17.0208 12.9564 17.0208H12.3574V18.1614H12.9564C13.7426 18.1614 13.8336 17.8243 13.8336 17.5706Z" fill="#DB382A"/>
<path fill-rule="evenodd" clip-rule="evenodd" d="M13.5443 26.1597L13.5337 26.1682L13.5443 26.1597Z" fill="#FAD41F"/>
<path fill-rule="evenodd" clip-rule="evenodd" d="M13.4316 26.2585L13.4367 26.2537L13.4316 26.2585Z" fill="#FAD41F"/>
<path fill-rule="evenodd" clip-rule="evenodd" d="M13.2544 26.481L13.2539 26.482L13.2544 26.481Z" fill="#FAD41F"/>
<path fill-rule="evenodd" clip-rule="evenodd" d="M12.9908 26.6239L12.9907 26.6245C13.0548 26.6199 13.119 26.616 13.1831 26.6118L13.1833 26.6113C13.1191 26.6157 13.055 26.6194 12.9908 26.6239Z" fill="#FAD41F"/>
<path fill-rule="evenodd" clip-rule="evenodd" d="M13.0222 26.3196C13.0222 26.3737 13.0193 26.426 13.0142 26.4769C13.0195 26.4261 13.0222 26.3737 13.0222 26.3196Z" fill="#FAD41F"/>
<path fill-rule="evenodd" clip-rule="evenodd" d="M24.866 25.8915C24.8475 25.8864 24.8287 25.8819 24.8096 25.8777C24.8287 25.8819 24.8475 25.8864 24.866 25.8915Z" fill="#FAD41F"/>
<path fill-rule="evenodd" clip-rule="evenodd" d="M24.6692 25.856C24.6343 25.853 24.5988 25.8513 24.562 25.8513C24.5988 25.8513 24.6343 25.853 24.6692 25.856Z" fill="#FAD41F"/>
<path fill-rule="evenodd" clip-rule="evenodd" d="M24.9558 25.9219C24.9395 25.9154 24.9231 25.9094 24.9062 25.9038C24.9231 25.9094 24.9395 25.9154 24.9558 25.9219Z" fill="#FAD41F"/>
<path fill-rule="evenodd" clip-rule="evenodd" d="M24.7704 25.8695C24.7487 25.8655 24.7263 25.8628 24.7036 25.8601C24.7263 25.8628 24.7487 25.8655 24.7704 25.8695Z" fill="#FAD41F"/>
<path fill-rule="evenodd" clip-rule="evenodd" d="M17.8296 26.435C17.8394 26.4349 17.8492 26.4347 17.8589 26.4346C17.8492 26.4347 17.8394 26.4346 17.8296 26.4347V26.435Z" fill="#FAD41F"/>
<path fill-rule="evenodd" clip-rule="evenodd" d="M25.0392 25.9602C25.0249 25.9526 25.0106 25.9451 24.9956 25.9382C25.0106 25.9451 25.0249 25.9526 25.0392 25.9602Z" fill="#FAD41F"/>
<path fill-rule="evenodd" clip-rule="evenodd" d="M15.1213 25.9412C15.112 25.938 15.1028 25.9344 15.0933 25.9314C15.1028 25.9344 15.112 25.938 15.1213 25.9412Z" fill="#FAD41F"/>
<path fill-rule="evenodd" clip-rule="evenodd" d="M15.8013 26.4771L15.8018 26.4777C15.8232 26.4771 15.8447 26.4761 15.8661 26.4753C15.8445 26.4759 15.823 26.4765 15.8014 26.4773L15.8013 26.4771Z" fill="#FAD41F"/>
<path fill-rule="evenodd" clip-rule="evenodd" d="M19.7695 26.4431C19.7839 26.4434 19.7983 26.4435 19.8127 26.4437C19.7983 26.4435 19.7839 26.4431 19.7695 26.4429V26.4431Z" fill="#FAD41F"/>
<path fill-rule="evenodd" clip-rule="evenodd" d="M15.4537 26.1067L15.4448 26.1008L15.4537 26.1067Z" fill="#FAD41F"/>
<path fill-rule="evenodd" clip-rule="evenodd" d="M15.2401 25.9878C15.2307 25.9836 15.2215 25.9794 15.2119 25.9753C15.2215 25.9794 15.2307 25.9836 15.2401 25.9878Z" fill="#FAD41F"/>
<path fill-rule="evenodd" clip-rule="evenodd" d="M13.9275 25.9507C13.9178 25.9541 13.9085 25.9579 13.8989 25.9615C13.9085 25.9579 13.9178 25.9541 13.9275 25.9507Z" fill="#FAD41F"/>
<path fill-rule="evenodd" clip-rule="evenodd" d="M13.7989 26.0042L13.7749 26.0155L13.7989 26.0042Z" fill="#FAD41F"/>
<path fill-rule="evenodd" clip-rule="evenodd" d="M15.3502 26.0425L15.3281 26.0305L15.3502 26.0425Z" fill="#FAD41F"/>
<path fill-rule="evenodd" clip-rule="evenodd" d="M20.3444 25.6509C20.3152 25.6806 20.2884 25.7116 20.2627 25.7432C20.2884 25.7116 20.3152 25.6806 20.3444 25.6509Z" fill="#FAD41F"/>
<path fill-rule="evenodd" clip-rule="evenodd" d="M22.6376 26.4161L22.6372 26.4126L22.6376 26.4161Z" fill="#FAD41F"/>
<path fill-rule="evenodd" clip-rule="evenodd" d="M20.0986 26.0024L20.0884 26.0262L20.0986 26.0024Z" fill="#FAD41F"/>
<path fill-rule="evenodd" clip-rule="evenodd" d="M20.1604 25.8904C20.151 25.9062 20.1421 25.9223 20.1333 25.9385C20.1421 25.9223 20.151 25.9062 20.1604 25.8904Z" fill="#FAD41F"/>
<path fill-rule="evenodd" clip-rule="evenodd" d="M22.5901 26.1753L22.5859 26.1614L22.5901 26.1753Z" fill="#FAD41F"/>
<path fill-rule="evenodd" clip-rule="evenodd" d="M22.6183 26.2937L22.6167 26.2856L22.6183 26.2937Z" fill="#FAD41F"/>
<path fill-rule="evenodd" clip-rule="evenodd" d="M20.2348 25.7803C20.2202 25.7998 20.2059 25.8196 20.1924 25.8397C20.2059 25.8196 20.2202 25.7998 20.2348 25.7803Z" fill="#FAD41F"/>
<path fill-rule="evenodd" clip-rule="evenodd" d="M29.2809 7.00854L28.02 8.15L28.1668 8.31222C28.6041 8.79551 29.0381 8.84216 29.4682 8.45275C29.8786 8.0813 29.865 7.65406 29.4247 7.16751L29.2809 7.00854Z" fill="#FAD41F"/>
<path fill-rule="evenodd" clip-rule="evenodd" d="M13.5258 3.28464L13.1626 3.40914L13.4012 4.10599L13.7645 3.98137C14.1023 3.86567 14.2308 3.68947 14.1483 3.44879C14.0672 3.21233 13.8804 3.16304 13.5258 3.28464Z" fill="#FAD41F"/>
<path fill-rule="evenodd" clip-rule="evenodd" d="M30.0166 9.05828C29.1363 9.85529 28.2695 9.48975 27.7033 8.86437L26.9455 8.02711L29.2653 5.92703L30.0231 6.76441C30.3227 7.09524 30.5046 7.44246 30.5604 7.84343C30.6165 8.24441 30.4369 8.67792 30.0166 9.05828ZM24.6333 6.40815L26.3945 3.82152L28.3428 5.14786L27.9408 5.73817L26.7083 4.8991L26.4396 5.29417L27.6092 6.09033L27.2223 6.65883L26.0527 5.86243L25.7511 6.30522L26.9837 7.14417L26.5816 7.73472L24.6333 6.40815ZM23.1761 5.76673L24.4296 2.89965L25.1741 3.22506L23.9204 6.09214L23.1761 5.76673ZM22.9183 3.68726L22.7569 4.35567L21.5028 4.05256L21.2323 5.17208L20.4425 4.98142L21.1774 1.93958L23.3211 2.45734L23.1533 3.15154L21.7995 2.82457L21.6643 3.38439L22.9183 3.68726ZM19.6242 4.91597L18.813 4.87174L18.9838 1.74723L19.795 1.79158L19.6242 4.91597ZM17.0481 2.51567L17.3372 4.91308L16.5262 5.01082L16.2371 2.61354L15.3952 2.71514L15.3097 2.00623L17.8045 1.70529L17.8899 2.4142L17.0481 2.51567ZM14.7942 5.40288L13.9355 4.67312L13.6314 4.77749L13.9455 5.6937L13.1768 5.95728L12.1625 2.99679L13.3407 2.59317C14.1135 2.32838 14.6939 2.53508 14.9197 3.19397C15.063 3.61206 14.9855 3.96434 14.6858 4.26046L15.6768 5.10037L14.7942 5.40288ZM10.7446 7.43221L9.07474 4.78617L11.0678 3.52853L11.4489 4.13235L10.1881 4.92803L10.443 5.33177L11.6397 4.57683L12.0064 5.1581L10.8099 5.91329L11.0956 6.36608L12.3564 5.57052L12.7376 6.17446L10.7446 7.43221ZM9.55755 8.60151C9.23588 8.92981 8.8619 9.09468 8.43273 9.09265C8.00343 9.0907 7.62307 8.92402 7.29465 8.60235C6.96635 8.28056 6.80159 7.90683 6.79412 7.47452C6.78966 7.03895 6.94357 6.65859 7.26536 6.33029C7.61836 5.97005 8.0426 5.80482 8.52914 5.83784L8.54602 6.57302C8.23025 6.55711 8.04441 6.58748 7.81939 6.81695C7.66019 6.97966 7.58956 7.17285 7.59812 7.40016C7.60667 7.6271 7.70345 7.82813 7.88194 8.003C8.06357 8.18113 8.26978 8.27695 8.49708 8.2808C8.72427 8.2849 8.91602 8.20403 9.07848 8.03819C9.32531 7.78643 9.36387 7.55575 9.30337 7.19021L10.036 7.22058C10.1138 7.73424 9.95431 8.19668 9.55755 8.60151ZM30.2994 5.4359C27.18 2.46518 22.9783 0.829102 18.4682 0.829102C13.958 0.829102 9.75641 2.46518 6.63708 5.4359C3.48907 8.43399 1.75537 12.5193 1.75537 16.9392C1.75537 20.367 2.78534 23.6609 4.73381 26.4648C4.98245 26.8226 5.24458 27.1683 5.51768 27.5034C6.02568 27.4187 6.53488 27.3406 7.04456 27.2659C5.58409 25.4788 4.63944 23.2476 4.47638 20.6331C4.19303 16.0902 5.72703 11.8091 11.7691 9.6592C11.7638 9.60533 11.8076 9.53675 11.8754 9.52157C12.4128 9.40117 13.6903 8.93632 14.8364 8.71986C15.0544 8.67864 15.2695 8.65333 15.4763 8.65068C14.2907 8.36818 13.7735 8.12208 12.9925 8.12593C12.907 8.12642 12.8642 8.0206 12.9259 7.9613C14.1488 6.78514 16.3652 6.7256 17.4326 7.60082L16.4763 5.60282L17.6387 5.42783C17.6387 5.42783 17.942 6.49323 18.2134 7.45126C19.4238 6.12492 21.2966 6.2593 21.9272 7.41739C21.9647 7.48621 21.9033 7.56744 21.826 7.55418C21.1911 7.44583 20.7557 7.97432 20.6649 8.41133L20.6739 8.41362C21.633 8.32781 23.6612 8.36842 24.8066 9.26016C29.1408 10.6284 32.1451 13.7319 32.4668 18.8873C32.6725 22.1845 31.6005 25.0294 29.7371 27.2361C29.7195 27.2336 29.7018 27.2314 29.6842 27.2289C30.265 27.3121 30.8451 27.4004 31.4237 27.4967C31.7027 27.1541 31.9704 26.8006 32.2236 26.4344C34.1583 23.6371 35.181 20.3538 35.181 16.9392C35.181 12.5193 33.4473 8.43399 30.2994 5.4359Z" fill="#F9D320"/>
<path fill-rule="evenodd" clip-rule="evenodd" d="M22.3852 25.7492C22.3611 25.7157 22.3356 25.6828 22.3081 25.6509C22.3356 25.6828 22.3611 25.7157 22.3852 25.7492Z" fill="#FAD41F"/>
<path fill-rule="evenodd" clip-rule="evenodd" d="M25.3306 26.2166L25.3164 26.1973L25.3306 26.2166Z" fill="#FAD41F"/>
<path fill-rule="evenodd" clip-rule="evenodd" d="M25.2748 26.1457L25.2583 26.1279L25.2748 26.1457Z" fill="#FAD41F"/>
<path fill-rule="evenodd" clip-rule="evenodd" d="M25.3794 26.2934L25.3687 26.2749L25.3794 26.2934Z" fill="#FAD41F"/>
<path fill-rule="evenodd" clip-rule="evenodd" d="M25.2012 26.0723L25.2132 26.0824L25.2012 26.0723Z" fill="#FAD41F"/>
<path fill-rule="evenodd" clip-rule="evenodd" d="M25.4207 26.3736L25.4146 26.3599L25.4207 26.3736Z" fill="#FAD41F"/>
<path fill-rule="evenodd" clip-rule="evenodd" d="M22.4513 25.851C22.4409 25.8332 22.4289 25.8159 22.4175 25.7986C22.4289 25.8159 22.4407 25.8332 22.4513 25.851Z" fill="#FAD41F"/>
<path fill-rule="evenodd" clip-rule="evenodd" d="M22.5523 26.0613L22.5435 26.0396L22.5523 26.0613Z" fill="#FAD41F"/>
<path fill-rule="evenodd" clip-rule="evenodd" d="M22.5056 25.9527C22.5002 25.9415 22.4941 25.9308 22.4883 25.9197C22.4941 25.9306 22.5002 25.9415 22.5056 25.9527Z" fill="#FAD41F"/>
<path fill-rule="evenodd" clip-rule="evenodd" d="M25.1083 26.0013C25.0981 25.9944 25.0882 25.9873 25.0776 25.981C25.0882 25.9873 25.0981 25.9944 25.1083 26.0013Z" fill="#FAD41F"/>
<path fill-rule="evenodd" clip-rule="evenodd" d="M30.8798 29.3546C30.8237 29.4121 30.7545 29.4402 30.672 29.4402C30.5909 29.4402 30.5216 29.4121 30.4656 29.3546C30.4096 29.2971 30.3816 29.2264 30.3816 29.1424C30.3816 29.0585 30.4096 28.9862 30.4656 28.9287C30.5216 28.8698 30.5909 28.8402 30.672 28.8402C30.7545 28.8402 30.8237 28.8698 30.8798 28.9287C30.9372 28.9862 30.9652 29.0585 30.9652 29.1424C30.9652 29.2264 30.9372 29.2971 30.8798 29.3546ZM30.9579 28.8535C30.8798 28.7739 30.7839 28.7342 30.672 28.7342C30.5599 28.7342 30.4656 28.7739 30.3874 28.8535C30.3109 28.933 30.2726 29.0288 30.2726 29.1424C30.2726 29.2543 30.3109 29.3502 30.3874 29.4298C30.4656 29.5079 30.5599 29.5477 30.672 29.5477C30.7839 29.5477 30.8798 29.5079 30.9579 29.4298C31.036 29.3502 31.0758 29.2543 31.0758 29.1424C31.0758 29.0288 31.036 28.933 30.9579 28.8535ZM30.672 29.1262H30.6233V29.0348H30.672C30.7206 29.0348 30.7456 29.0495 30.7456 29.079C30.7456 29.11 30.7206 29.1262 30.672 29.1262ZM30.8473 29.079C30.8473 28.9906 30.778 28.9479 30.6896 28.9479H30.5231V29.3177H30.6233V29.2161H30.6734L30.7442 29.3177H30.8577L30.7707 29.1999C30.8223 29.1764 30.8473 29.1365 30.8473 29.079ZM24.9682 30.0418C25.1602 30.8371 24.5846 31.5042 23.8345 31.6854C23.0843 31.8664 22.25 31.5395 22.058 30.7442C21.9225 30.183 22.1262 29.728 22.5119 29.4305C22.5487 29.4004 22.5949 29.3712 22.6259 29.3605C22.433 29.377 22.3165 29.3675 22.199 29.407C22.1861 29.4114 22.1744 29.3975 22.1808 29.3855C22.3065 29.1473 22.595 29.0311 22.7994 29.11C22.6606 28.9887 22.5515 28.8919 22.5515 28.8919L22.7418 28.7345C22.7418 28.7345 22.8637 28.9144 22.9522 29.0452C23.0687 28.7849 23.3576 28.7119 23.5104 28.8551C23.5194 28.8635 23.5142 28.8788 23.5019 28.8807C23.4008 28.896 23.3636 29.0009 23.3717 29.0713L23.4594 29.0603C24.1776 28.9683 24.7955 29.326 24.9682 30.0418ZM13.7562 27.194C13.6173 27.138 13.5352 27.0181 13.5994 26.8895C13.6478 26.7931 13.7896 26.7538 13.898 26.7961C14.0278 26.8467 14.0485 26.9812 14.115 27.0372C14.1723 27.0854 14.2507 27.0915 14.302 27.0583C14.3398 27.0339 14.3523 26.9801 14.3381 26.9311C14.3192 26.8659 14.2689 26.8252 14.22 26.7853C14.1327 26.7145 14.0097 26.6535 14.0842 26.4601C14.1452 26.3016 14.3241 26.2959 14.3241 26.2959C14.3952 26.288 14.4589 26.3094 14.5108 26.3557C14.5802 26.4176 14.5937 26.5006 14.582 26.5889C14.5714 26.6695 14.5429 26.7403 14.528 26.8202C14.5108 26.913 14.5603 27.0065 14.6547 27.0101C14.7787 27.0148 14.816 26.9195 14.8312 26.8591C14.8533 26.7706 14.8825 26.6886 14.9646 26.6369C15.0823 26.5626 15.246 26.5789 15.3219 26.7215C15.3819 26.8344 15.3627 26.9897 15.2706 27.0746C15.2292 27.1127 15.1796 27.1261 15.1258 27.1264C15.0487 27.127 14.9717 27.1251 14.9001 27.1611C14.8514 27.1857 14.8302 27.2256 14.8302 27.2794C14.8302 27.3315 14.8574 27.3657 14.9014 27.388C14.9845 27.4298 15.0761 27.4383 15.1657 27.454C15.2958 27.4768 15.4101 27.5226 15.4835 27.6432L15.4855 27.6465C15.5697 27.7893 15.4816 27.995 15.3159 28.0037C14.9471 28.0231 14.8718 27.601 14.727 27.604C14.6653 27.6053 14.6168 27.6699 14.6381 27.7449C14.6498 27.7862 14.6824 27.8468 14.7029 27.8844C14.7752 28.0171 14.6683 28.1671 14.5431 28.1798C14.3351 28.201 14.2483 28.0802 14.2537 27.9567C14.2598 27.8181 14.3773 27.6764 14.2568 27.6161C14.1303 27.5528 14.0276 27.8 13.9066 27.8551C13.7972 27.905 13.6452 27.8663 13.5912 27.7448C13.5533 27.6594 13.5601 27.4949 13.7291 27.4322C13.8347 27.393 14.0698 27.4834 14.0819 27.3688C14.0957 27.2368 13.8348 27.2256 13.7562 27.194ZM14.5417 28.6402C15.3598 28.6402 15.9956 28.1607 15.9956 27.2457C15.9956 26.495 15.5745 26.0375 14.9704 25.8975C14.6196 25.8286 14.3839 25.8397 14.0613 25.9102C13.4807 26.064 13.0494 26.5166 13.0494 27.2457C13.0494 28.1607 13.7237 28.6402 14.5417 28.6402ZM30.2712 30.7806C30.2712 31.0689 30.1555 31.308 29.9275 31.4916C29.7118 31.6695 29.4282 31.7601 29.0852 31.7601C28.6405 31.7601 28.2799 31.6668 27.9571 31.4553L27.8961 31.4123L28.317 30.7178C28.8003 31.0277 29.05 30.9813 29.1452 30.9739C29.3543 30.9578 29.377 30.7265 29.204 30.7306C29.0711 30.7336 28.8086 30.761 28.4193 30.5797C28.1471 30.413 27.9695 30.219 27.9695 29.8988C27.9695 29.6223 28.0844 29.396 28.311 29.226C28.5288 29.0627 28.737 28.9723 29.0476 28.958C29.4503 28.9394 29.7419 29.027 30.1035 29.2131L30.1796 29.2637L29.7957 29.8964C29.3751 29.7279 29.157 29.6819 29.0044 29.7111C28.8257 29.7451 28.8515 29.9185 28.9834 29.9361C29.1152 29.9536 29.3258 29.897 29.7224 30.0377C30.0667 30.1752 30.2712 30.399 30.2712 30.7806ZM23.8858 28.5723H22.827V25.9262H23.8753V26.2328C23.9458 26.0726 24.2556 25.8513 24.5618 25.8513C25.1895 25.8513 25.5495 26.2858 25.5495 27.0433V28.5723H24.4919V27.1309C24.4919 26.9088 24.396 26.7961 24.2069 26.7961C24.0086 26.7961 23.8858 26.8796 23.8858 27.2956V28.5723ZM18.6643 30.6521C18.5841 30.7425 18.4702 30.7903 18.3351 30.7903C18.1169 30.7903 17.8959 30.6394 17.8959 30.3511C17.8959 30.2366 17.9349 30.1298 18.0058 30.05C18.0861 29.9598 18.2 29.912 18.3351 29.912C18.5533 29.912 18.7743 30.0628 18.7743 30.3511C18.7743 30.4656 18.7352 30.5725 18.6643 30.6521ZM18.7894 29.3353L18.7232 29.2629C18.5394 29.0622 18.3084 28.9562 18.0553 28.9562C17.8767 28.9562 17.6886 29.0103 17.5111 29.1127C17.1155 29.3409 16.8792 29.8028 16.8789 30.3484C16.8787 30.8964 17.1149 31.3604 17.5111 31.5894C17.6886 31.6921 17.8778 31.7464 18.0584 31.7464C18.3107 31.7464 18.5406 31.6429 18.7234 31.4472L18.7894 31.3765V31.6739H19.8063V29.031H18.7894V29.3353ZM16.3665 26.8336H16.0927V25.9213H16.3665V25.1999H17.4157V25.9213H17.8295V26.8336H17.4157V27.4967C17.4157 27.6254 17.4707 27.6803 17.5995 27.6803H17.9318V28.5879L17.8708 28.5904C17.764 28.595 17.6213 28.6011 17.4731 28.6011C16.7699 28.6011 16.3665 28.2482 16.3665 27.5651V26.8336ZM19.5396 27.6824H19.872V28.5898L19.8109 28.5924C19.7042 28.5969 19.5615 28.603 19.4131 28.603C18.7099 28.603 18.3066 28.2503 18.3066 27.567V26.8355H18.0327V25.9233H18.3066V25.2018H19.3558V25.9233H19.7696V26.8355H19.3558V27.4986C19.3558 27.6274 19.4107 27.6824 19.5396 27.6824ZM9.69816 29.2024H8.79655V31.6773H7.77308V29.2024H6.87158V28.1958H9.69816V29.2024ZM21.5162 30.7858H21.849V31.694L21.7879 31.6967C21.681 31.7013 21.5382 31.7074 21.3898 31.7074C20.686 31.7074 20.2822 31.3542 20.2822 30.6705V29.9382H20.0081V29.0252H20.2822V28.3031H21.3323V29.0252H21.7465V29.9382H21.3323V30.6019C21.3323 30.7307 21.3874 30.7858 21.5162 30.7858ZM16.7024 30.145V31.6773H15.6361V30.2379C15.6361 30.0118 15.5395 29.8972 15.3487 29.8972C15.1589 29.8972 15.1208 30.0163 15.1084 30.0554C15.0756 30.1728 15.07 30.2398 15.07 30.3822V31.6773H14.0192V30.2379C14.0192 30.0118 13.9209 29.8972 13.7267 29.8972C13.6164 29.8972 13.5444 29.9508 13.5162 29.9967C13.4963 30.0266 13.4813 30.0808 13.4719 30.1187C13.4531 30.2275 13.4531 30.2665 13.4531 30.3822V31.6773H12.4317V29.0252H13.4429L13.4422 29.2745C13.5139 29.1283 13.7874 28.9562 14.1712 28.9562C14.4871 28.9562 14.7388 29.0648 14.899 29.2701L14.9273 29.3065L14.9579 29.2719C15.149 29.0557 15.368 28.9634 15.6904 28.9634C15.9947 28.9634 16.7024 29.0786 16.7024 30.145ZM10.8025 30.7737C10.5474 30.7737 10.3203 30.5807 10.3203 30.3148C10.3203 30.0459 10.5474 29.8507 10.8025 29.8507C11.0617 29.8507 11.2847 30.0416 11.2847 30.3148C11.2847 30.5892 11.0657 30.7737 10.8025 30.7737ZM11.2294 29.0025C10.8784 28.9335 10.685 28.9447 10.3622 29.0152C9.78132 29.169 9.34974 29.6218 9.34974 30.3513C9.34974 31.2667 10.0513 31.7464 10.8217 31.7464C11.5922 31.7464 12.2551 31.2667 12.2551 30.3513C12.2551 29.6002 11.8338 29.1425 11.2294 29.0025ZM11.1653 25.9028H11.4677C11.7605 25.9028 11.9497 26.0417 11.9497 26.2566C11.9497 26.4978 11.774 26.6361 11.4677 26.6361H11.1653V25.9028ZM11.1677 27.4427H11.3432L12.0041 28.5723H13.1912L12.4574 27.3407L12.4904 27.3207C12.8432 27.1074 13.0221 26.7705 13.0221 26.3195C13.0221 25.5387 12.49 25.0908 11.5621 25.0908H10.1135V28.5723H11.1677V27.4427ZM26.0626 30.0622C26.1053 29.8613 26.2636 29.7214 26.4888 29.7214C26.7383 29.7214 26.8783 29.8673 26.8965 30.0622H26.0626ZM26.5095 28.9562C26.1071 28.9562 25.7753 29.0867 25.5197 29.3533C25.2641 29.6143 25.139 29.9516 25.139 30.3704C25.139 30.7946 25.2749 31.1318 25.5468 31.3765C25.8188 31.6213 26.1615 31.7464 26.5749 31.7464C26.9905 31.7464 27.4319 31.6726 27.7847 31.2971L27.1428 30.6931C27.0077 30.8711 26.8195 30.9033 26.5639 30.9033C26.3464 30.9033 26.1116 30.7836 26.0626 30.5716H27.8203L27.8258 30.3214C27.8258 29.9406 27.7115 29.6198 27.4831 29.3533C27.2547 29.0867 26.9284 28.9562 26.5095 28.9562ZM21.3135 26.0188C21.563 26.0188 21.703 26.1649 21.7212 26.3597H20.8873C20.93 26.1588 21.0883 26.0188 21.3135 26.0188ZM21.3996 28.0439C21.8152 28.0439 22.2566 27.9702 22.6094 27.5946L21.9675 26.9906C21.8324 27.1687 21.6442 27.2009 21.3886 27.2009C21.1711 27.2009 20.9363 27.0812 20.8873 26.8691H22.645L22.6505 26.6189C22.6505 26.2382 22.5362 25.9174 22.3078 25.6508C22.0794 25.3843 21.7531 25.2538 21.3342 25.2538C20.9318 25.2538 20.6 25.3843 20.3444 25.6508C20.0888 25.9119 19.9637 26.249 19.9637 26.668C19.9637 27.0922 20.0996 27.4293 20.3715 27.6741C20.6435 27.9188 20.9862 28.0439 21.3996 28.0439Z" fill="#F2E93C"/>
<path fill-rule="evenodd" clip-rule="evenodd" d="M23.2556 20.027C22.6467 20.027 22.1493 19.7646 21.7349 19.225L21.6618 19.1301L20.5757 20.2256L20.6243 20.2971C21.1538 21.0737 22.0916 21.5374 23.1329 21.5374C23.8234 21.5374 24.3872 21.3673 24.8565 21.0175C25.3296 20.6648 25.5696 20.1988 25.5696 19.6325C25.5696 18.543 24.9237 17.8779 23.6503 17.6556L22.8641 17.5164C22.4439 17.4447 22.4439 17.2808 22.4439 17.2269C22.4439 17.0798 22.5884 16.9225 22.9938 16.9225C23.4558 16.9225 23.8657 17.1457 24.2469 17.6048L24.3228 17.6961L25.4089 16.5345L25.3481 16.4633C24.7514 15.7657 23.9812 15.4121 23.0593 15.4121C22.4336 15.4121 21.8862 15.5901 21.4322 15.9412C20.9764 16.294 20.7453 16.7623 20.7453 17.3332C20.7453 17.8149 20.9122 18.2304 21.2432 18.5702C21.5762 18.8947 21.9994 19.1023 22.5009 19.1874L23.3853 19.3512C23.871 19.4339 23.871 19.6265 23.871 19.6899C23.871 19.8978 23.6351 20.027 23.2556 20.027Z" fill="#FFFFFE"/>
<path fill-rule="evenodd" clip-rule="evenodd" d="M30.8245 21.4474V15.502H29.1177V17.6458H27.4779V15.502H25.7793V21.4474H27.4779V19.2544H29.1177V21.4474H30.8245Z" fill="#FFFFFE"/>
<path fill-rule="evenodd" clip-rule="evenodd" d="M20.4614 17.0206V15.502H15.9316V21.4474H20.4614V19.9287H17.7285V19.1563H20.3222V17.6868H17.7285V17.0206H20.4614Z" fill="#FFFFFE"/>
<path fill-rule="evenodd" clip-rule="evenodd" d="M10.363 17.0206V15.502H6.11133V21.4474H7.80995V19.3363H10.1747V17.8667H7.80995V17.0206H10.363Z" fill="#FFFFFE"/>
<path fill-rule="evenodd" clip-rule="evenodd" d="M12.9564 18.1613H12.3574V17.0206H12.9564C13.4829 17.0206 13.8336 17.1142 13.8336 17.5705C13.8336 17.8242 13.7426 18.1613 12.9564 18.1613ZM15.5322 17.5868C15.5322 16.262 14.6261 15.502 13.0463 15.502H10.6587V21.4474H12.3574V19.6717H12.7823L13.8378 21.4474H15.7918L14.5355 19.3393C15.197 18.9814 15.5322 18.3924 15.5322 17.5868Z" fill="#FFFFFE"/>
</svg>
