<svg width="28" height="28" viewBox="0 0 28 28" fill="none" xmlns="http://www.w3.org/2000/svg">
<path d="M23.3333 0H4.66667C2.0895 0 0 2.0895 0 4.66667V23.3333C0 25.9105 2.0895 28 4.66667 28H14.5833V18.0833H11.0833V14H14.5833V11.0833C14.5833 7 16.9167 4.66667 20.4167 4.66667C22.2442 4.66667 23.3333 5.25 23.3333 5.25V8.75H21C19.3317 8.75 18.6667 9.97092 18.6667 11.0833V14H22.75L22.1667 18.0833H18.6667V28H23.3333C25.9105 28 28 25.9105 28 23.3333V4.66667C28 2.0895 25.9105 0 23.3333 0Z" fill="white"/>
</svg>
