<svg width="32" height="33" viewBox="0 0 32 33" fill="none" xmlns="http://www.w3.org/2000/svg">
<mask id="mask0_45_3696" style="mask-type:alpha" maskUnits="userSpaceOnUse" x="0" y="7" width="32" height="26">
<path d="M0.53125 7.10498H31.3643V32.492H0.53125V7.10498Z" fill="white"/>
</mask>
<g mask="url(#mask0_45_3696)">
<path fill-rule="evenodd" clip-rule="evenodd" d="M31.3367 17.8233C31.0281 12.8759 28.5121 9.17436 24.7263 7.10498C24.7478 7.22554 24.6405 7.37625 24.5183 7.32287C22.0421 6.23965 17.8413 9.74531 14.9058 7.90949C14.9279 8.56835 14.7992 11.7823 10.2718 11.9687C10.1649 11.9731 10.1061 11.864 10.1737 11.7867C10.7792 11.0961 11.3905 9.34764 10.5115 8.41552C8.62906 10.1024 7.53589 10.7372 3.92653 9.89947C1.61562 12.3158 0.306144 15.623 0.563206 19.7427C1.08769 28.1527 8.96513 32.9601 16.8978 32.465C24.83 31.9704 31.8613 26.2333 31.3367 17.8233Z" fill="#FA320A"/>
</g>
<path fill-rule="evenodd" clip-rule="evenodd" d="M16.88 5.08586C18.51 4.69735 23.1984 5.04802 24.7006 7.04065C24.7907 7.16015 24.6638 7.38628 24.5184 7.32281C22.0422 6.23959 17.8414 9.74525 14.9059 7.90943C14.928 8.56828 14.7993 11.7822 10.2719 11.9686C10.165 11.973 10.1062 11.8639 10.1738 11.7866C10.7792 11.096 11.3904 9.34757 10.5116 8.41545C8.46104 10.253 7.3494 10.8435 2.89888 9.64048C2.75322 9.60118 2.80288 9.36709 2.95783 9.308C3.799 8.98654 5.70466 7.57854 7.50754 6.95793C7.85078 6.83989 8.19296 6.74827 8.5269 6.69502C6.54183 6.51763 5.64703 6.24158 4.38442 6.43199C4.24607 6.45283 4.15206 6.29177 4.23783 6.1813C5.93901 3.99003 9.07289 3.32825 11.0064 4.49234C9.8146 3.01556 8.88102 1.8378 8.88102 1.8378L11.0931 0.581299C11.0931 0.581299 12.0071 2.62319 12.672 4.10926C14.3176 1.67793 17.3792 1.45353 18.6728 3.17861C18.7495 3.28112 18.6693 3.42691 18.5412 3.42385C17.4884 3.39823 16.9086 4.35584 16.8647 5.08414L16.88 5.08586Z" fill="#00912D"/>
</svg>
