<svg width="30" height="30" viewBox="0 0 30 30" fill="none" xmlns="http://www.w3.org/2000/svg">
<path d="M9.27273 0.75C4.57351 0.75 0.75 4.57351 0.75 9.27273V20.7273C0.75 25.4265 4.57351 29.25 9.27273 29.25H20.7273C25.4265 29.25 29.25 25.4265 29.25 20.7273V9.27273C29.25 4.57351 25.4265 0.75 20.7273 0.75H9.27273ZM9.27273 2.52273H20.7273C24.4624 2.52273 27.4773 5.53758 27.4773 9.27273V20.7273C27.4773 24.4624 24.4624 27.4773 20.7273 27.4773H9.27273C5.53758 27.4773 2.52273 24.4624 2.52273 20.7273V9.27273C2.52273 5.53758 5.53758 2.52273 9.27273 2.52273ZM22.6364 5.84091C22.2325 5.84091 21.8452 6.00134 21.5596 6.28691C21.2741 6.57247 21.1136 6.95978 21.1136 7.36364C21.1136 7.76749 21.2741 8.1548 21.5596 8.44037C21.8452 8.72593 22.2325 8.88636 22.6364 8.88636C23.0402 8.88636 23.4275 8.72593 23.7131 8.44037C23.9987 8.1548 24.1591 7.76749 24.1591 7.36364C24.1591 6.95978 23.9987 6.57247 23.7131 6.28691C23.4275 6.00134 23.0402 5.84091 22.6364 5.84091ZM15 7.75C11.0035 7.75 7.75 11.0035 7.75 15C7.75 18.9965 11.0035 22.25 15 22.25C18.9965 22.25 22.25 18.9965 22.25 15C22.25 11.0035 18.9965 7.75 15 7.75ZM15 9.52273C18.0326 9.52273 20.4773 11.9674 20.4773 15C20.4773 18.0326 18.0326 20.4773 15 20.4773C11.9674 20.4773 9.52273 18.0326 9.52273 15C9.52273 11.9674 11.9674 9.52273 15 9.52273Z" fill="white" stroke="white" stroke-width="0.5"/>
</svg>
