<svg width="28" height="28" viewBox="0 0 28 28" fill="none" xmlns="http://www.w3.org/2000/svg">
<path d="M14 0C6.28044 0 0 6.28044 0 14C0 20.0164 3.81505 25.1575 9.15258 27.1338C8.99884 25.7633 9.02295 23.5187 9.27663 22.432C9.51418 21.4112 10.8113 15.9268 10.8113 15.9268C10.8113 15.9268 10.4197 15.1426 10.4197 13.9844C10.4197 12.1643 11.4742 10.8063 12.7874 10.8063C13.9044 10.8063 14.443 11.6448 14.443 12.6495C14.443 13.773 13.7287 15.4511 13.3587 17.0065C13.0502 18.3096 14.0121 19.3722 15.2966 19.3722C17.6226 19.3722 19.4105 16.9194 19.4105 13.3794C19.4105 10.2461 17.1595 8.055 13.9446 8.055C10.2214 8.055 8.03587 10.848 8.03587 13.7347C8.03587 14.8592 8.46876 16.0652 9.00984 16.7216C9.11654 16.8514 9.13214 16.9647 9.10045 17.0966C9.0013 17.5098 8.78084 18.3987 8.73703 18.5809C8.68015 18.821 8.54726 18.8709 8.29961 18.7556C6.66478 17.9945 5.64295 15.6052 5.64295 13.6854C5.64295 9.5575 8.64189 5.76578 14.2904 5.76578C18.8306 5.76578 22.3585 9.00029 22.3585 13.3245C22.3585 17.835 19.5141 21.4646 15.5674 21.4646C14.2411 21.4646 12.9948 20.7755 12.5685 19.9616C12.5685 19.9616 11.9121 22.4602 11.7526 23.0728C11.4772 24.1322 10.2982 26.3269 9.7064 27.3237C11.0603 27.7611 12.5025 28 14 28C21.7199 28 28 21.7199 28 14C28 6.28044 21.7199 0 14 0Z" fill="white"/>
</svg>
