<svg width="12" height="18" viewBox="0 0 12 18" fill="none" xmlns="http://www.w3.org/2000/svg">
<path d="M5.81836 1.42859C5.2707 1.42859 4.74548 1.64614 4.35822 2.0334C3.97097 2.42065 3.75342 2.94587 3.75342 3.49353V9.00004C3.75342 9.54769 3.97097 10.0729 4.35822 10.4602C4.74548 10.8474 5.2707 11.065 5.81836 11.065C6.36601 11.065 6.89124 10.8474 7.27849 10.4602C7.66574 10.0729 7.8833 9.54769 7.8833 9.00004V3.49353C7.8833 2.94587 7.66574 2.42065 7.27849 2.0334C6.89124 1.64614 6.36601 1.42859 5.81836 1.42859V1.42859Z" stroke="black" stroke-width="1.6" stroke-linecap="round" stroke-linejoin="round"/>
<path d="M10.6364 7.62341V9.00004C10.6364 10.2779 10.1288 11.5034 9.22517 12.407C8.32158 13.3106 7.09606 13.8182 5.81819 13.8182C4.54033 13.8182 3.3148 13.3106 2.41122 12.407C1.50763 11.5034 1 10.2779 1 9.00004V7.62341" stroke="black" stroke-width="1.6" stroke-linecap="square" stroke-linejoin="round"/>
<path d="M5.81836 13.8182V16.5715" stroke="black" stroke-width="1.6" stroke-linecap="round" stroke-linejoin="round"/>
<path d="M3.06494 16.5715H8.57145" stroke="black" stroke-width="1.6" stroke-linecap="square" stroke-linejoin="round"/>
</svg>
