<svg width="32" height="31" viewBox="0 0 32 31" fill="none" xmlns="http://www.w3.org/2000/svg">
<mask id="mask0_45_3391" style="mask-type:alpha" maskUnits="userSpaceOnUse" x="0" y="0" width="32" height="32">
<path d="M0 0.0561523H31.8967V31.0005H0V0.0561523Z" fill="white"/>
</mask>
<g mask="url(#mask0_45_3391)">
<path fill-rule="evenodd" clip-rule="evenodd" d="M28.5856 28.0816C22.5384 28.3991 21.3028 21.4795 18.9303 21.5288C17.9193 21.55 17.1226 22.6069 17.4724 23.8388C17.6649 24.516 18.1986 25.5091 18.5349 26.1254C19.7212 28.3001 17.9675 30.7612 15.9153 30.9693C12.5049 31.3153 11.0823 29.3369 11.1703 27.3117C11.2692 25.0381 13.1969 22.715 11.2198 21.7265C9.14782 20.6906 7.46347 24.7415 5.48073 25.6457C3.6862 26.4641 1.19512 25.8295 0.309502 23.8368C-0.312533 22.4366 -0.199411 19.7403 2.57013 18.7115C4.3001 18.069 8.15526 19.5518 8.35301 17.6736C8.58094 15.5086 4.30305 15.326 3.01505 14.8068C0.736028 13.8884 -0.609095 11.923 0.4448 9.81467C1.23554 8.2332 3.56213 7.58969 5.33799 8.28246C7.46543 9.11235 7.80691 11.3189 8.89687 12.2366C9.83582 13.0274 11.1209 13.1264 11.9613 12.5827C12.5811 12.1815 12.7874 11.3006 12.5536 10.4958C12.2434 9.42744 11.4202 8.76077 10.6172 8.10758C9.18796 6.94576 7.17027 5.94674 8.39077 2.77551C9.39119 0.176635 12.3254 0.0830213 12.3254 0.0830213C13.4911 -0.0480664 14.535 0.303934 15.3857 1.06393C16.523 2.07993 16.7444 3.43797 16.5541 4.88681C16.3802 6.20934 15.9122 7.36765 15.6681 8.67797C15.3849 10.1992 16.1979 11.7321 17.7442 11.7918C19.778 11.8704 20.3878 10.3072 20.6367 9.31628C21.001 7.86646 21.4792 6.52049 22.8247 5.67278C24.7558 4.45607 27.4382 4.72274 28.6827 7.06113C29.6671 8.91137 29.351 11.4585 27.841 12.8493C27.1635 13.4732 26.3489 13.6931 25.4678 13.6993C24.2042 13.7083 22.9412 13.6773 21.7683 14.2686C20.9699 14.671 20.6219 15.3267 20.6221 16.2055C20.6221 17.0621 21.068 17.6215 21.7905 17.9856C23.1513 18.6715 24.6535 18.8117 26.1235 19.0691C28.2553 19.4425 30.1297 20.1933 31.3331 22.1716C31.3439 22.189 31.3544 22.2065 31.3647 22.2242C32.7467 24.5664 31.3014 27.9389 28.5856 28.0816Z" fill="#0AC855"/>
</g>
</svg>
