<svg width="34" height="28" viewBox="0 0 34 28" fill="none" xmlns="http://www.w3.org/2000/svg">
<path d="M34 3.3137C32.7466 3.87763 31.4032 4.25626 29.9908 4.42812C31.4323 3.5527 32.5399 2.16707 33.0593 0.51827C31.7132 1.32656 30.216 1.91464 28.6288 2.23151C27.3569 0.856622 25.5444 0 23.5385 0C19.6856 0 16.5615 3.16333 16.5615 7.0678C16.5615 7.62098 16.625 8.16074 16.7443 8.67901C10.9465 8.38362 5.80843 5.56939 2.3663 1.29165C1.76479 2.33893 1.42296 3.5527 1.42296 4.84703C1.42296 7.29874 2.65248 9.46313 4.52591 10.7333C3.38119 10.6957 2.30535 10.3761 1.36466 9.84713C1.36466 9.87667 1.36466 9.90621 1.36466 9.93574C1.36466 13.3622 3.77071 16.2167 6.95846 16.8693C6.3755 17.0304 5.75809 17.1163 5.12213 17.1163C4.67165 17.1163 4.23443 17.0734 3.80781 16.9874C4.69815 19.7936 7.27379 21.8425 10.3237 21.8989C7.9389 23.7948 4.93134 24.9226 1.66145 24.9226C1.09703 24.9226 0.543216 24.8904 0 24.8232C3.0844 26.8319 6.75177 28 10.6921 28C23.5226 28 30.5393 17.2291 30.5393 7.88952C30.5393 7.58339 30.5314 7.27458 30.5208 6.97382C31.8828 5.97756 33.0646 4.73156 34 3.3137Z" fill="white"/>
</svg>
