<svg width="33" height="24" viewBox="0 0 33 24" fill="none" xmlns="http://www.w3.org/2000/svg">
<path d="M32.0788 4.55566C31.7738 2.99645 30.3203 1.86097 28.6335 1.50648C26.1093 1.01074 21.4377 0.65625 16.3834 0.65625C11.332 0.65625 6.58565 1.01074 4.05846 1.50648C2.37466 1.86097 0.918162 2.92445 0.613105 4.55566C0.305057 6.32812 0 8.80957 0 12C0 15.1904 0.305057 17.6719 0.687874 19.4443C0.995922 21.0035 2.44943 22.139 4.13323 22.4935C6.81294 22.9893 11.4067 23.3438 16.4611 23.3438C21.5155 23.3438 26.1093 22.9893 28.789 22.4935C30.4728 22.139 31.9263 21.0756 32.2344 19.4443C32.5394 17.6719 32.9222 15.1184 33 12C32.8445 8.80957 32.4617 6.32812 32.0788 4.55566ZM12.2501 16.9629V7.03711L21.5903 12L12.2501 16.9629Z" fill="white"/>
</svg>
